<?xml version="1.0" encoding="utf-8"?>
<!-- Generator: Adobe Illustrator 26.0.1, SVG Export Plug-In . SVG Version: 6.00 Build 0)  -->
<svg version="1.1" id="Layer_1" xmlns="http://www.w3.org/2000/svg" xmlns:xlink="http://www.w3.org/1999/xlink" x="0px" y="0px"
	 viewBox="0 0 200 200" style="enable-background:new 0 0 200 200;" xml:space="preserve">
<style type="text/css">
	.st0{fill:#1799CA;}
</style>
<path class="st0" d="M127.84,17.91c-9.98,0-19.43,2.31-27.84,6.41c-8.42-4.11-17.86-6.41-27.84-6.41
	c-35.15,0-63.74,28.59-63.74,63.74v100.44h16.11V81.65c0-26.26,21.37-47.63,47.63-47.63c4.07,0,8.02,0.51,11.79,1.48
	C71.74,47.12,64.1,63.5,64.1,81.65c0,18.15,7.63,34.53,19.85,46.15c-3.77,0.96-7.72,1.48-11.79,1.48H40.93v14.83h116.58v-14.83
	h-29.66c-4.07,0-8.02-0.51-11.79-1.48c12.21-11.62,19.85-28.01,19.85-46.15c0-18.15-7.64-34.53-19.85-46.15
	c3.77-0.96,7.72-1.48,11.79-1.48c26.26,0,47.63,21.37,47.63,47.63v100.44h16.11V81.65C191.58,46.5,162.99,17.91,127.84,17.91
	 M119.79,81.65c0,15.87-7.81,29.95-19.79,38.61c-11.98-8.66-19.79-22.74-19.79-38.61c0-15.87,7.81-29.95,19.79-38.61
	C111.98,51.7,119.79,65.77,119.79,81.65"/>
</svg>
