<?xml version="1.0" encoding="utf-8"?>
<!-- Generator: Adobe Illustrator 26.0.1, SVG Export Plug-In . SVG Version: 6.00 Build 0)  -->
<svg version="1.1" id="Layer_1" xmlns="http://www.w3.org/2000/svg" xmlns:xlink="http://www.w3.org/1999/xlink" x="0px" y="0px"
	 viewBox="0 0 15 15" style="enable-background:new 0 0 15 15;" xml:space="preserve">
<style type="text/css">
	.st0{fill:#1799CA;}
</style>
<path class="st0" d="M9.53,1.51c-0.73,0-1.42,0.17-2.03,0.47c-0.61-0.3-1.3-0.47-2.03-0.47c-2.56,0-4.65,2.09-4.65,4.65v7.33h1.18
	V6.16c0-1.92,1.56-3.47,3.47-3.47c0.3,0,0.59,0.04,0.86,0.11C5.44,3.64,4.88,4.84,4.88,6.16c0,1.32,0.56,2.52,1.45,3.37
	C6.05,9.6,5.77,9.64,5.47,9.64H3.19v1.08h8.5V9.64H9.53c-0.3,0-0.59-0.04-0.86-0.11c0.89-0.85,1.45-2.04,1.45-3.37
	c0-1.32-0.56-2.52-1.45-3.37c0.28-0.07,0.56-0.11,0.86-0.11c1.92,0,3.47,1.56,3.47,3.47v7.33h1.18V6.16
	C14.18,3.6,12.1,1.51,9.53,1.51 M8.94,6.16c0,1.16-0.57,2.18-1.44,2.82C6.63,8.35,6.06,7.32,6.06,6.16C6.06,5,6.63,3.98,7.5,3.34
	C8.37,3.98,8.94,5,8.94,6.16"/>
</svg>
