<?xml version="1.0" encoding="utf-8"?>
<!-- Generator: Adobe Illustrator 26.0.1, SVG Export Plug-In . SVG Version: 6.00 Build 0)  -->
<svg version="1.1" id="Layer_1" xmlns="http://www.w3.org/2000/svg" xmlns:xlink="http://www.w3.org/1999/xlink" x="0px" y="0px"
	 viewBox="0 0 200 200" style="enable-background:new 0 0 200 200;" xml:space="preserve">
<style type="text/css">
	.st0{fill:#1799CA;}
</style>
<g>
	<path class="st0" d="M135.64,70.61h-12.92c-2.05,0-3.72,1.67-3.72,3.72v25.84v15.66h7.44v-11.94h9.2c9.18,0,16.64-7.47,16.64-16.64
		C152.28,78.08,144.82,70.61,135.64,70.61 M135.64,96.45h-9.2V78.06h9.2c5.07,0,9.2,4.13,9.2,9.2
		C144.84,92.32,140.71,96.45,135.64,96.45"/>
	<path class="st0" d="M110.06,115.8H82.66l0.29-7.35c0-4.12,2.61-7.74,6.51-9.04l8.75-3.84c4.34-1.38,7.25-5.36,7.25-9.91
		c0-4.91-3.99-8.9-8.9-8.9H96.2c-5,0-9.06,4.06-9.06,9.06H82.3c0-7.66,6.24-13.9,13.9-13.9h0.37c7.57,0,13.73,6.16,13.73,13.74
		c0,6.62-4.21,12.43-10.5,14.48l-8.75,3.84c-1.96,0.62-3.27,2.42-3.27,4.47v2.22h22.55L110.06,115.8z"/>
	<path class="st0" d="M173.94,70.61c-9.18,0-16.64,7.47-16.64,16.64V99.3c0,9.17,7.47,16.64,16.64,16.64c0.51,0,1-0.03,1.49-0.07
		v3.35h4.84v-4.53c6.04-2.49,10.31-8.45,10.31-15.39V87.26C190.57,78.08,183.11,70.61,173.94,70.61 M183.13,99.3
		c0,2.62-1.1,4.99-2.87,6.66v-5.79h-4.84v8.2c-0.48,0.08-0.98,0.12-1.49,0.12c-5.07,0-9.2-4.13-9.2-9.2V87.26
		c0-5.07,4.13-9.2,9.2-9.2c5.07,0,9.2,4.13,9.2,9.2V99.3z"/>
	<polygon class="st0" points="84.22,125.07 82.61,125.07 82.61,124.57 86.37,124.57 86.37,125.07 84.76,125.07 84.76,129.35 
		84.22,129.35 	"/>
	<path class="st0" d="M87.35,124.57h2.05c0.59,0,1.06,0.18,1.36,0.48c0.24,0.24,0.37,0.56,0.37,0.94v0.01c0,0.79-0.55,1.26-1.3,1.39
		l1.47,1.95h-0.66l-1.39-1.86h-1.37v1.86h-0.54V124.57z M89.35,127.01c0.71,0,1.23-0.37,1.23-0.98v-0.01c0-0.59-0.45-0.94-1.22-0.94
		h-1.47v1.94H89.35z"/>
	<path class="st0" d="M94.05,124.54h0.51l2.18,4.81h-0.58l-0.56-1.26h-2.6l-0.57,1.26h-0.55L94.05,124.54z M95.38,127.6l-1.09-2.44
		l-1.09,2.44H95.38z"/>
	<path class="st0" d="M97.67,124.57h1.66c1.5,0,2.54,1.03,2.54,2.37v0.01c0,1.34-1.04,2.39-2.54,2.39h-1.66V124.57z M98.21,125.07
		v3.78h1.12c1.21,0,1.98-0.81,1.98-1.88v-0.01c0-1.06-0.77-1.89-1.98-1.89H98.21z"/>
	<polygon class="st0" points="103,124.57 106.46,124.57 106.46,125.06 103.54,125.06 103.54,126.7 106.15,126.7 106.15,127.19 
		103.54,127.19 103.54,128.86 106.49,128.86 106.49,129.35 103,129.35 	"/>
	<path class="st0" d="M112.32,128.68c-0.44,0.47-0.94,0.74-1.56,0.74c-0.86,0-1.5-0.54-1.5-1.34v-0.01c0-0.63,0.42-1.09,1.15-1.38
		c-0.33-0.38-0.48-0.67-0.48-1.05v-0.01c0-0.63,0.51-1.13,1.26-1.13c0.67,0,1.16,0.48,1.16,1.08v0.01c0,0.61-0.42,1-1.13,1.24
		l1.09,1.11c0.21-0.31,0.4-0.66,0.57-1.06l0.44,0.2c-0.21,0.46-0.42,0.85-0.69,1.2l0.83,0.85l-0.41,0.31L112.32,128.68z
		 M111.99,128.34l-1.28-1.32c-0.63,0.24-0.91,0.61-0.91,1.02v0.01c0,0.51,0.41,0.9,1,0.9C111.25,128.96,111.64,128.72,111.99,128.34
		 M111.85,125.61v-0.01c0-0.38-0.29-0.66-0.68-0.66c-0.44,0-0.72,0.3-0.72,0.69v0.01c0,0.28,0.12,0.5,0.48,0.88
		C111.53,126.31,111.85,126.02,111.85,125.61"/>
	<path class="st0" d="M118.18,124.54h0.51l2.18,4.81h-0.58l-0.56-1.26h-2.6l-0.57,1.26h-0.55L118.18,124.54z M119.51,127.6
		l-1.09-2.44l-1.09,2.44H119.51z"/>
	<path class="st0" d="M121.31,126.98v-0.01c0-1.31,0.96-2.47,2.4-2.47c0.81,0,1.3,0.23,1.78,0.63l-0.35,0.41
		c-0.36-0.32-0.78-0.55-1.45-0.55c-1.06,0-1.82,0.89-1.82,1.96v0.01c0,1.14,0.73,1.99,1.89,1.99c0.55,0,1.05-0.21,1.38-0.48v-1.19
		h-1.45v-0.48h1.97v1.9c-0.44,0.4-1.11,0.73-1.92,0.73C122.24,129.43,121.31,128.34,121.31,126.98"/>
	<polygon class="st0" points="126.87,124.57 130.33,124.57 130.33,125.06 127.41,125.06 127.41,126.7 130.02,126.7 130.02,127.19 
		127.41,127.19 127.41,128.86 130.36,128.86 130.36,129.35 126.87,129.35 	"/>
	<polygon class="st0" points="131.44,124.57 131.95,124.57 134.96,128.4 134.96,124.57 135.48,124.57 135.48,129.35 135.05,129.35 
		131.97,125.43 131.97,129.35 131.44,129.35 	"/>
	<path class="st0" d="M136.62,126.98v-0.01c0-1.35,1.02-2.47,2.42-2.47c0.87,0,1.39,0.3,1.86,0.76l-0.37,0.4
		c-0.41-0.38-0.85-0.66-1.5-0.66c-1.06,0-1.85,0.86-1.85,1.96v0.01c0,1.11,0.79,1.97,1.85,1.97c0.66,0,1.09-0.25,1.54-0.69
		l0.35,0.35c-0.49,0.51-1.05,0.84-1.91,0.84C137.64,129.43,136.62,128.35,136.62,126.98"/>
	<rect x="141.94" y="124.57" class="st0" width="0.54" height="4.78"/>
	<polygon class="st0" points="143.88,124.57 147.33,124.57 147.33,125.06 144.42,125.06 144.42,126.7 147.02,126.7 147.02,127.19 
		144.42,127.19 144.42,128.86 147.37,128.86 147.37,129.35 143.88,129.35 	"/>
	<path class="st0" d="M148.13,128.65l0.33-0.4c0.5,0.46,0.98,0.68,1.64,0.68c0.65,0,1.06-0.34,1.06-0.81v-0.01
		c0-0.44-0.24-0.69-1.24-0.91c-1.1-0.24-1.6-0.59-1.6-1.38v-0.01c0-0.74,0.66-1.3,1.57-1.3c0.7,0,1.19,0.2,1.68,0.59l-0.31,0.42
		c-0.44-0.36-0.89-0.52-1.38-0.52c-0.63,0-1.02,0.33-1.02,0.77v0.01c0,0.45,0.24,0.71,1.3,0.93c1.06,0.24,1.56,0.62,1.56,1.35v0.01
		c0,0.82-0.68,1.35-1.63,1.35C149.32,129.42,148.71,129.17,148.13,128.65"/>
	<path class="st0" d="M154.65,126.98v-0.01c0-1.35,1.02-2.47,2.42-2.47c0.87,0,1.39,0.3,1.86,0.76l-0.37,0.4
		c-0.41-0.38-0.85-0.66-1.5-0.66c-1.06,0-1.85,0.86-1.85,1.96v0.01c0,1.11,0.79,1.97,1.85,1.97c0.66,0,1.09-0.25,1.54-0.69
		l0.35,0.35c-0.49,0.51-1.05,0.84-1.91,0.84C155.67,129.43,154.65,128.35,154.65,126.98"/>
	<path class="st0" d="M159.57,126.98v-0.01c0-1.32,0.99-2.47,2.44-2.47c1.45,0,2.43,1.14,2.43,2.46v0.01c0,1.32-0.99,2.47-2.44,2.47
		C160.55,129.43,159.57,128.29,159.57,126.98 M163.89,126.98v-0.01c0-1.09-0.79-1.97-1.88-1.97c-1.09,0-1.87,0.87-1.87,1.96v0.01
		c0,1.09,0.79,1.97,1.88,1.97C163.11,128.93,163.89,128.06,163.89,126.98"/>
	<polygon class="st0" points="165.58,124.57 166.13,124.57 167.87,127.18 169.61,124.57 170.16,124.57 170.16,129.35 169.62,129.35 
		169.62,125.48 167.88,128.04 167.85,128.04 166.11,125.49 166.11,129.35 165.58,129.35 	"/>
	<path class="st0" d="M171.51,124.57h1.79c1.08,0,1.79,0.57,1.79,1.51v0.01c0,1.03-0.86,1.56-1.88,1.56h-1.16v1.69h-0.54V124.57z
		 M173.23,127.17c0.79,0,1.31-0.42,1.31-1.05v-0.01c0-0.68-0.51-1.04-1.28-1.04h-1.21v2.1H173.23z"/>
	<path class="st0" d="M177.35,124.54h0.51l2.18,4.81h-0.58l-0.56-1.26h-2.6l-0.57,1.26h-0.55L177.35,124.54z M178.68,127.6
		l-1.09-2.44l-1.09,2.44H178.68z"/>
	<polygon class="st0" points="180.97,124.57 181.48,124.57 184.49,128.4 184.49,124.57 185.01,124.57 185.01,129.35 184.58,129.35 
		181.5,125.43 181.5,129.35 180.97,129.35 	"/>
	<polygon class="st0" points="187.86,127.46 185.87,124.57 186.53,124.57 188.14,126.96 189.76,124.57 190.39,124.57 188.4,127.45 
		188.4,129.35 187.86,129.35 	"/>
	<path class="st0" d="M47.25,70.61c-3.57,0-6.95,0.83-9.96,2.3c-3.01-1.47-6.39-2.3-9.96-2.3c-12.57,0-22.81,10.23-22.81,22.8v35.94
		h5.76V93.42c0-9.4,7.65-17.04,17.04-17.04c1.46,0,2.87,0.18,4.22,0.53c-4.37,4.16-7.1,10.02-7.1,16.51c0,6.49,2.73,12.36,7.1,16.51
		c-1.35,0.35-2.76,0.53-4.22,0.53H16.15v5.3h41.71v-5.3H47.25c-1.46,0-2.87-0.18-4.22-0.53c4.37-4.16,7.1-10.02,7.1-16.51
		c0-6.49-2.73-12.36-7.1-16.51c1.35-0.35,2.76-0.53,4.22-0.53c9.4,0,17.04,7.64,17.04,17.04v35.94h5.76V93.42
		C70.05,80.84,59.82,70.61,47.25,70.61 M44.36,93.42c0,5.68-2.8,10.72-7.08,13.81c-4.28-3.1-7.08-8.13-7.08-13.81
		c0-5.68,2.8-10.72,7.08-13.81C41.57,82.7,44.36,87.74,44.36,93.42"/>
	<path class="st0" d="M193.06,70.55c-1.33,0-2.42,1.09-2.42,2.42c0,1.33,1.09,2.42,2.42,2.42c1.33,0,2.42-1.08,2.42-2.42
		C195.48,71.64,194.4,70.55,193.06,70.55 M193.06,75.1c-1.17,0-2.13-0.95-2.13-2.13c0-1.17,0.95-2.13,2.13-2.13
		c1.17,0,2.13,0.95,2.13,2.13C195.19,74.14,194.24,75.1,193.06,75.1"/>
	<path class="st0" d="M193.75,73.15c-0.07-0.07-0.16-0.12-0.25-0.15c0.17-0.05,0.3-0.14,0.38-0.25c0.08-0.11,0.13-0.26,0.13-0.43
		c0-0.25-0.08-0.44-0.24-0.55c-0.16-0.12-0.42-0.18-0.77-0.18h-1.04v2.65h0.68v-1h0.19c0.11,0,0.2,0.03,0.27,0.07
		c0.07,0.05,0.13,0.14,0.2,0.27l0.32,0.66h0.73l-0.37-0.75C193.9,73.33,193.82,73.22,193.75,73.15 M193.23,72.68
		c-0.06,0.05-0.16,0.08-0.31,0.08h-0.29v-0.68h0.29c0.14,0,0.24,0.03,0.31,0.08c0.06,0.05,0.1,0.14,0.1,0.26
		C193.33,72.55,193.29,72.63,193.23,72.68"/>
</g>
</svg>
